<?xml version="1.0" encoding="UTF-8"?>
<svg version="1.1" xmlns="http://www.w3.org/2000/svg" width="233" height="44">
<path d="M0 0 C2.64 0 5.28 0 8 0 C8.33 4.62 8.66 9.24 9 14 C9 12.02 9 10.04 9 8 C11.7826171 5.2173829 14.10332225 5.59069336 17.90625 5.34375 C20.21512259 5.17368193 20.21512259 5.17368193 22 3 C24.9375 2.875 24.9375 2.875 28 3 C31.18490007 3.2773501 31.18490007 3.2773501 34 1 C38.82642815 0.29648674 42.7836545 0.26512459 47 2.8125 C49 5 49 5 51 8 C51.66 7.34 52.32 6.68 53 6 C57.98695925 4.84916325 61.30729955 4.92648119 66 7 C66.99 7.99 66.99 7.99 68 9 C68.33 8.01 68.66 7.02 69 6 C71.62527189 5.94617894 74.24944713 5.90641687 76.875 5.875 C77.62136719 5.85824219 78.36773437 5.84148438 79.13671875 5.82421875 C81.09194461 5.8066041 83.04742021 5.89679811 85 6 C87 8 87 8 87.1953125 11.4765625 C87.18201493 12.85950968 87.15816232 14.24238654 87.125 15.625 C87.11597656 16.33140625 87.10695313 17.0378125 87.09765625 17.765625 C87.07407603 19.51056098 87.03820461 21.25532295 87 23 C84.36 23 81.72 23 79 23 C78.67 19.7 78.34 16.4 78 13 C77.67 16.3 77.34 19.6 77 23 C74.36 23 71.72 23 69 23 C68.505 21.515 68.505 21.515 68 20 C67.44183594 20.48726562 66.88367188 20.97453125 66.30859375 21.4765625 C62.45992526 24.01629297 58.45919723 23.56190207 54 23 C50.875 21.5 50.875 21.5 49 20 C48.46246094 20.4846875 47.92492187 20.969375 47.37109375 21.46875 C43.02265802 24.2769655 37.98157746 23.74280704 33 23 C29.7082528 20.56410708 28.2523173 18.37847595 26 15 C25.78235346 17.1463673 25.78235346 17.1463673 27.5625 18.8125 C29 21 29 21 28.875 23.5625 C27.88321843 26.32532008 27.37975648 27.2953173 25 29 C22.39958045 29.29869684 20.09300841 29.41945157 17.5 29.375 C16.82324219 29.38660156 16.14648438 29.39820312 15.44921875 29.41015625 C12.49049841 29.39264903 10.48231731 29.34259841 8.03125 27.6015625 C7 26 7 26 7 24 C4.69 23.67 2.38 23.34 0 23 C0 15.41 0 7.82 0 0 Z M27 7 C28 10 28 10 28 10 Z M38 8 C36.64381501 9.12534105 36.64381501 9.12534105 36.9375 12.0625 C36.958125 13.031875 36.97875 14.00125 37 15 C38.32 15.33 39.64 15.66 41 16 C41.33 15.34 41.66 14.68 42 14 C44.64 14 47.28 14 50 14 C49.67 13.01 49.34 12.02 49 11 C47.88625 11.061875 46.7725 11.12375 45.625 11.1875 C44.42875 11.125625 43.2325 11.06375 42 11 C41.34 10.01 40.68 9.02 40 8 C39.34 8 38.68 8 38 8 Z M58 12 C57.67 13.32 57.34 14.64 57 16 C58.32 16 59.64 16 61 16 C60.67 14.68 60.34 13.36 60 12 C59.34 12 58.68 12 58 12 Z M16 23 C20 24 20 24 20 24 Z " fill="#EDDAE4" transform="translate(75,9)"/>
<path d="M0 0 C4.3192566 3.84519185 6.67514302 8.32933364 7.37109375 14.05078125 C7.52000149 21.36477925 7.15898082 26.55647108 2 32 C-4.01201695 37.42867273 -8.62985714 39.33384227 -16.6953125 39.21484375 C-22.93887882 38.63281638 -27.67299019 35.32700981 -32 31 C-36.30251812 25.1523051 -37.00476534 19.09550778 -36 12 C-34.1845203 5.75861712 -30.3404085 1.56809711 -25 -2 C-16.82582502 -5.99626332 -7.5249486 -4.83321797 0 0 Z " fill="#EFAEB9" transform="translate(36,4)"/>
<path d="M0 0 C1.98 0 3.96 0 6 0 C6 1.65 6 3.3 6 5 C6.99 5 7.98 5 9 5 C9 6.98 9 8.96 9 11 C8.01 11 7.02 11 6 11 C6 12.65 6 14.3 6 16 C6.99 16 7.98 16 9 16 C9 17.98 9 19.96 9 22 C6.03 22 3.06 22 0 22 C-2.10814567 17.78370866 -2.17700355 15.60209225 -2 11 C-2.66 11 -3.32 11 -4 11 C-4 11.66 -4 12.32 -4 13 C-10.625 13.25 -10.625 13.25 -14 11 C-14 12.65 -14 14.3 -14 16 C-13.01 15.34 -12.02 14.68 -11 14 C-8.66800612 13.92094936 -6.33167378 13.91201231 -4 14 C-3.75 16.3125 -3.75 16.3125 -4 19 C-6.88692411 21.78122437 -8.97503557 22.41163295 -12.9375 22.375 C-17.05915238 22.26541397 -19.70028973 21.63976821 -23 19 C-23.57427734 19.73089844 -23.57427734 19.73089844 -24.16015625 20.4765625 C-26.6472278 22.53592111 -28.24321727 22.40100502 -31.4375 22.375 C-32.38496094 22.38273437 -33.33242187 22.39046875 -34.30859375 22.3984375 C-37.35191571 21.94790217 -38.73261099 21.02617742 -41 19 C-41.33 19.99 -41.66 20.98 -42 22 C-44.64 22 -47.28 22 -50 22 C-50.33 18.7 -50.66 15.4 -51 12 C-51.33 15.3 -51.66 18.6 -52 22 C-54.64 22 -57.28 22 -60 22 C-60 16.39 -60 10.78 -60 5 C-57.421875 4.9175 -54.84375 4.835 -52.1875 4.75 C-51.37949951 4.71358398 -50.57149902 4.67716797 -49.73901367 4.63964844 C-47.79296875 4.609375 -47.79296875 4.609375 -44 5 C-41.98828125 7.015625 -41.98828125 7.015625 -41 9 C-40.649375 8.360625 -40.29875 7.72125 -39.9375 7.0625 C-37.143914 4.08868264 -35.00928438 4.13590794 -31 4 C-27.39991598 4.900021 -25.09526022 5.93649318 -22 8 C-21.63003906 7.51144531 -21.26007813 7.02289062 -20.87890625 6.51953125 C-18.22437515 4.37272751 -16.30713876 4.63427363 -12.9375 4.6875 C-11.87402344 4.69136719 -10.81054688 4.69523438 -9.71484375 4.69921875 C-7 5 -7 5 -5 7 C-4.67 6.34 -4.34 5.68 -4 5 C-3.01 5 -2.02 5 -1 5 C-0.67 3.35 -0.34 1.7 0 0 Z " fill="#F0DFE8" transform="translate(223,10)"/>
<path d="M0 0 C2.6875 1.75 2.6875 1.75 4 4 C4 5.32 4 6.64 4 8 C1.69 8 -0.62 8 -3 8 C-3.33 7.34 -3.66 6.68 -4 6 C-4.66 6 -5.32 6 -6 6 C-6 7.98 -6 9.96 -6 12 C-5.01 12.33 -4.02 12.66 -3 13 C-2.67 12.01 -2.34 11.02 -2 10 C-0.9275 10.103125 0.145 10.20625 1.25 10.3125 C2.4875 10.209375 3.725 10.10625 5 10 C5.61875 9.195625 6.2375 8.39125 6.875 7.5625 C9.66481409 4.19831242 11.58850759 4.24252069 15.78125 3.84765625 C18.33353446 4.02290113 19.84758689 4.63586099 22 6 C23.94574488 9.89148976 23.33352513 13.88030848 22.125 17.9375 C19.55518329 20.43173387 18.62196913 20.38031207 15.125 20.5 C11.01742194 20.30783261 8.28444023 19.62755218 5 17 C4.46890625 17.49113281 3.9378125 17.98226563 3.390625 18.48828125 C0.31984538 20.43009777 -1.64921396 20.30491694 -5.25 20.1875 C-6.32765625 20.16042969 -7.4053125 20.13335937 -8.515625 20.10546875 C-9.33546875 20.07066406 -10.1553125 20.03585938 -11 20 C-13.93752057 15.35682233 -16.10297095 11.66340221 -16 6 C-12.43505385 -1.0025728 -7.41726841 -1.3465195 0 0 Z M14 9 C13.67 10.32 13.34 11.64 13 13 C14.32 13 15.64 13 17 13 C16.67 11.68 16.34 10.36 16 9 C15.34 9 14.68 9 14 9 Z " fill="#DA8EB6" transform="translate(119,12)"/>
<path d="M0 0 C4.3192566 3.84519185 6.67514302 8.32933364 7.37109375 14.05078125 C7.52000149 21.36477925 7.15898082 26.55647108 2 32 C-4.01201695 37.42867273 -8.62985714 39.33384227 -16.6953125 39.21484375 C-22.93887882 38.63281638 -27.67299019 35.32700981 -32 31 C-36.30251812 25.1523051 -37.00476534 19.09550778 -36 12 C-34.1845203 5.75861712 -30.3404085 1.56809711 -25 -2 C-16.82582502 -5.99626332 -7.5249486 -4.83321797 0 0 Z M-31.87109375 6.28125 C-34.26700972 9.92901134 -34.13454229 13.26322217 -34.125 17.5 C-34.12757812 18.6446875 -34.13015625 19.789375 -34.1328125 20.96875 C-34.13684408 24.04679859 -34.13684408 24.04679859 -33 27 C-20.79 27 -8.58 27 4 27 C6.13841245 20.58476266 6.94725922 16.84177766 4.8125 10.4375 C2.18420803 5.45280832 -0.28259685 2.01023715 -5.1875 -0.875 C-15.65445057 -3.96360837 -24.93838853 -2.33268347 -31.87109375 6.28125 Z " fill="#CFD1D2" transform="translate(36,4)"/>
<path d="M0 0 C4.5270291 1.2346443 6.77528171 2.6677911 10 6 C11.32796291 6.35412344 12.66216607 6.68521554 14 7 C17.25 8.625 17.25 8.625 20 11 C20.42056706 14.4846985 20.58368102 16.83263796 19 20 C15.04 20 11.08 20 7 20 C7.66 18.68 8.32 17.36 9 16 C8.13375 16.66 7.2675 17.32 6.375 18 C2.74732991 20.14973042 1.11935411 20.54924721 -3 20 C-3.99 19.34 -4.98 18.68 -6 18 C-6 17.34 -6 16.68 -6 16 C-8.97 15.505 -8.97 15.505 -12 15 C-12 13.68 -12 12.36 -12 11 C-9.34771188 9.92474806 -6.71631546 8.90543849 -4 8 C-4 7.01 -4 6.02 -4 5 C-4.66 5 -5.32 5 -6 5 C-6.33 3.68 -6.66 2.36 -7 1 C-5.35 1.33 -3.7 1.66 -2 2 C-2 2.66 -2 3.32 -2 4 C-1.34 4 -0.68 4 0 4 C0 2.68 0 1.36 0 0 Z " fill="#E2E5E5" transform="translate(20,9)"/>
<path d="M0 0 C2.64 0 5.28 0 8 0 C8.33 6.6 8.66 13.2 9 20 C9.66 20 10.32 20 11 20 C10.34 21.98 9.68 23.96 9 26 C10.32 26 11.64 26 13 26 C13 24.68 13 23.36 13 22 C15.64 22 18.28 22 21 22 C20.67 23.32 20.34 24.64 20 26 C21.65 26 23.3 26 25 26 C25.33 25.01 25.66 24.02 26 23 C24.68 23.33 23.36 23.66 22 24 C22.33 23.01 22.66 22.02 23 21 C20.36 20.01 17.72 19.02 15 18 C15.33 17.34 15.66 16.68 16 16 C18.32156597 15.59270772 20.6568787 15.25561323 23 15 C23.74957157 11.52852158 23.74957157 11.52852158 24 8 C24.99 8 25.98 8 27 8 C27 8.66 27 9.32 27 10 C27.66 10 28.32 10 29 10 C29.12117188 10.61488281 29.24234375 11.22976562 29.3671875 11.86328125 C29.53476563 12.67152344 29.70234375 13.47976562 29.875 14.3125 C30.03742188 15.11300781 30.19984375 15.91351563 30.3671875 16.73828125 C30.94478999 19.25301118 30.94478999 19.25301118 33 22 C29.17053157 20.54744301 27.87949705 18.57104439 26 15 C25.78235346 17.1463673 25.78235346 17.1463673 27.5625 18.8125 C29 21 29 21 28.875 23.5625 C27.88321843 26.32532008 27.37975648 27.2953173 25 29 C22.39958045 29.29869684 20.09300841 29.41945157 17.5 29.375 C16.82324219 29.38660156 16.14648438 29.39820312 15.44921875 29.41015625 C12.49049841 29.39264903 10.48231731 29.34259841 8.03125 27.6015625 C7 26 7 26 7 24 C4.69 23.67 2.38 23.34 0 23 C0 15.41 0 7.82 0 0 Z M16 23 C20 24 20 24 20 24 Z " fill="#EACEDD" transform="translate(75,9)"/>
<path d="M0 0 C2.3925 -0.0825 4.785 -0.165 7.25 -0.25 C7.99668945 -0.28641602 8.74337891 -0.32283203 9.51269531 -0.36035156 C12.87419799 -0.41640674 14.70251494 -0.21411345 17.453125 1.765625 C19.52827187 4.76305937 19.58389304 6.54946228 19.37890625 10.09375 C19 12 19 12 17.4375 14.5 C14.17971981 16.50478781 11.75217167 16.28862859 8 16 C8 17.98 8 19.96 8 22 C5.36 22 2.72 22 0 22 C0 14.74 0 7.48 0 0 Z M8 7 C8 7.66 8 8.32 8 9 C8.66 8.67 9.32 8.34 10 8 C9.34 7.67 8.68 7.34 8 7 Z " fill="#E6C2D5" transform="translate(55,10)"/>
<path d="M0 0 C6.84543443 -0.50499106 12.4103574 -0.3089322 18 4 C22.52449003 8.81035106 24.8198507 12.75731268 25.1875 19.375 C25 23 25 23 23 29 C11.12 29 -0.76 29 -13 29 C-13 28.34 -13 27.68 -13 27 C-9.04 26.505 -9.04 26.505 -5 26 C-6.98 25.01 -8.96 24.02 -11 23 C-11 21.02 -11 19.04 -11 17 C-8.69 16.01 -6.38 15.02 -4 14 C-4.515625 13.236875 -5.03125 12.47375 -5.5625 11.6875 C-6.036875 10.800625 -6.51125 9.91375 -7 9 C-6.67 8.01 -6.34 7.02 -6 6 C4.17024991 4.3015478 9.73624826 6.92077763 18.08203125 12.6953125 C19.96234808 14.03671496 19.96234808 14.03671496 22 15 C19.68177438 9.38171202 17.735373 5.66285175 12 3 C8.02243311 2.11496594 4.0430935 1.49720891 0 1 C0 0.67 0 0.34 0 0 Z M3 7 C3 8.32 3 9.64 3 11 C2.34 11 1.68 11 1 11 C0.67 10.01 0.34 9.02 0 8 C-1.32 8 -2.64 8 -4 8 C-3.67 9.32 -3.34 10.64 -3 12 C-2.34 12 -1.68 12 -1 12 C-1 12.99 -1 13.98 -1 15 C-3.63904371 16.41377341 -6.07120629 17.37240135 -9 18 C-9 19.32 -9 20.64 -9 22 C-6.03 22.495 -6.03 22.495 -3 23 C-2.67 23.99 -2.34 24.98 -2 26 C0.86608129 27.43304064 2.81300783 27.30644155 6 27 C9.32808239 25.11586085 9.32808239 25.11586085 12 23 C11.34 24.32 10.68 25.64 10 27 C13.96 27 17.92 27 22 27 C23.61027254 23.77945493 23.48128098 21.54944721 23 18 C20.95977711 15.80115388 18.71690463 14.2624589 16 13 C15.01 13 14.02 13 13 13 C12.1028125 12.071875 12.1028125 12.071875 11.1875 11.125 C8.61575411 8.62673257 6.42169383 7.93318923 3 7 Z " fill="#7A6163" transform="translate(17,2)"/>
<path d="M0 0 C0 0.99 0 1.98 0 3 C-0.99 3 -1.98 3 -3 3 C-2.79375 3.94875 -2.5875 4.8975 -2.375 5.875 C-2.25125 6.90625 -2.1275 7.9375 -2 9 C-4.76223278 11.76223278 -7.20706617 11.57856291 -11 12 C-11 12.33 -11 12.66 -11 13 C-8.36 13.66 -5.72 14.32 -3 15 C-3 15.99 -3 16.98 -3 18 C-2.34 18 -1.68 18 -1 18 C-1.33 19.32 -1.66 20.64 -2 22 C-5.63 22 -9.26 22 -13 22 C-13 21.67 -13 21.34 -13 21 C-11.02 20.67 -9.04 20.34 -7 20 C-6.67 19.01 -6.34 18.02 -6 17 C-8.64 17 -11.28 17 -14 17 C-14 18.32 -14 19.64 -14 21 C-15.32 21 -16.64 21 -18 21 C-17.49396008 18.83125748 -17.00016187 17.00032373 -16 15 C-16.66 15 -17.32 15 -18 15 C-18.05389087 13.04196493 -18.09274217 11.08351091 -18.125 9.125 C-18.14820312 8.03445312 -18.17140625 6.94390625 -18.1953125 5.8203125 C-18 3 -18 3 -16 1 C-10.72805845 -0.31798539 -5.39478968 -0.09595476 0 0 Z " fill="#DA75A9" transform="translate(102,14)"/>
<path d="M0 0 C10.23 0 20.46 0 31 0 C28.95568494 4.08863012 26.6813185 8.10067578 22.11328125 9.6328125 C16.68968713 10.57517451 10.85935065 10.83462121 6 8 C3.03232971 5.36956497 1.26050352 3.78151055 0 0 Z " fill="#4B5155" transform="translate(6,33)"/>
<path d="M0 0 C2.6875 1.75 2.6875 1.75 4 4 C4 5.32 4 6.64 4 8 C2.02 8 0.04 8 -2 8 C-2.33 7.01 -2.66 6.02 -3 5 C-4.65 5.33 -6.3 5.66 -8 6 C-8 8.31 -8 10.62 -8 13 C-6.35 13.33 -4.7 13.66 -3 14 C-2.67 13.34 -2.34 12.68 -2 12 C-0.02 12 1.96 12 4 12 C3.6875 14.375 3.6875 14.375 3 17 C-0.33397306 19.22264871 -1.59514891 19.29675463 -5.5 19.3125 C-6.4590625 19.32925781 -7.418125 19.34601562 -8.40625 19.36328125 C-11 19 -11 19 -12.75 17.78125 C-15.23796809 14.23589547 -15.91378396 10.27764211 -16 6 C-12.68362438 -1.12406614 -7.33241569 -1.33111546 0 0 Z " fill="#DE6BA7" transform="translate(119,12)"/>
<path d="M0 0 C2.62950732 2.32610263 2.3763549 5.08079111 2.625 8.4375 C-1.005 8.4375 -4.635 8.4375 -8.375 8.4375 C-8.045 9.0975 -7.715 9.7575 -7.375 10.4375 C-4.075 10.1075 -0.775 9.7775 2.625 9.4375 C1.965 11.4175 1.305 13.3975 0.625 15.4375 C-1.14449095 15.54565225 -2.91587487 15.62316083 -4.6875 15.6875 C-5.67363281 15.73390625 -6.65976563 15.7803125 -7.67578125 15.828125 C-10.375 15.4375 -10.375 15.4375 -12.203125 13.671875 C-14.01894386 10.20971371 -14.06240945 7.24949784 -13.375 3.4375 C-10.09748886 -1.80651782 -5.57167713 -1.31960774 0 0 Z " fill="#DC86B2" transform="translate(196.375,16.5625)"/>
<path d="M0 0 C0.79921875 0.11085938 1.5984375 0.22171875 2.421875 0.3359375 C3.32679688 0.47902344 3.32679688 0.47902344 4.25 0.625 C4.58 2.275 4.91 3.925 5.25 5.625 C2.28 5.295 -0.69 4.965 -3.75 4.625 C-3.75 6.605 -3.75 8.585 -3.75 10.625 C-2.43 10.625 -1.11 10.625 0.25 10.625 C0.58 9.965 0.91 9.305 1.25 8.625 C2.9 8.625 4.55 8.625 6.25 8.625 C4.375 13.375 4.375 13.375 3.25 15.625 C-5.76470128 16.39916328 -5.76470128 16.39916328 -9.375 13.5625 C-11.02624851 10.03483272 -11.05207788 7.47649295 -10.75 3.625 C-10.09 3.625 -9.43 3.625 -8.75 3.625 C-8.75 2.965 -8.75 2.305 -8.75 1.625 C-5.5750906 -0.2828584 -3.64414789 -0.5359041 0 0 Z " fill="#DB9EBE" transform="translate(211.75,16.375)"/>
<path d="M0 0 C2.97 0 5.94 0 9 0 C9 0.66 9 1.32 9 2 C10.65 2 12.3 2 14 2 C14 4.97 14 7.94 14 11 C11.04335481 12.4783226 8.25770263 12.06032783 5 12 C5 13.98 5 15.96 5 18 C3.35 18 1.7 18 0 18 C0 12.06 0 6.12 0 0 Z M4 2 C4 3.65 4 5.3 4 7 C5.98 7 7.96 7 10 7 C9.67 5.35 9.34 3.7 9 2 C7.35 2 5.7 2 4 2 Z " fill="#DE71A9" transform="translate(57,13)"/>
<path d="M0 0 C0 4.62 0 9.24 0 14 C-1.65 14 -3.3 14 -5 14 C-5 10.37 -5 6.74 -5 3 C-5.99 3.33 -6.98 3.66 -8 4 C-8.66 7.3 -9.32 10.6 -10 14 C-11.32 14 -12.64 14 -14 14 C-14 9.38 -14 4.76 -14 0 C-12.02 0 -10.04 0 -8 0 C-6 -1 -6 -1 0 0 Z " fill="#D86EA8" transform="translate(160,17)"/>
<path d="M0 0 C2.5625 0.1875 2.5625 0.1875 4.5625 2.1875 C4.7578125 5.2265625 4.7578125 5.2265625 4.6875 8.8125 C4.66945312 10.00101563 4.65140625 11.18953125 4.6328125 12.4140625 C4.60960937 13.32929688 4.58640625 14.24453125 4.5625 15.1875 C3.2425 15.1875 1.9225 15.1875 0.5625 15.1875 C0.2325 11.8875 -0.0975 8.5875 -0.4375 5.1875 C-1.7575 4.8575 -3.0775 4.5275 -4.4375 4.1875 C-4.7675 7.8175 -5.0975 11.4475 -5.4375 15.1875 C-6.7575 15.1875 -8.0775 15.1875 -9.4375 15.1875 C-9.4375 10.5675 -9.4375 5.9475 -9.4375 1.1875 C-7.4575 1.1875 -5.4775 1.1875 -3.4375 1.1875 C-2.4375 0.1875 -2.4375 0.1875 0 0 Z " fill="#DA6FA6" transform="translate(174.4375,15.8125)"/>
<path d="M0 0 C1.62462075 2.08007801 1.93204238 3.57655803 2.3515625 6.16796875 C3.03407129 9.71932804 3.78762054 12.04998398 6.3515625 14.73046875 C4.7015625 14.07046875 3.0515625 13.41046875 1.3515625 12.73046875 C1.0215625 13.39046875 0.6915625 14.05046875 0.3515625 14.73046875 C-0.3084375 14.73046875 -0.9684375 14.73046875 -1.6484375 14.73046875 C-0.9884375 13.08046875 -0.3284375 11.43046875 0.3515625 9.73046875 C-0.5353125 10.08109375 -1.4221875 10.43171875 -2.3359375 10.79296875 C-5.71046876 11.74802477 -7.34529902 11.70198007 -10.6484375 10.73046875 C-10.6484375 10.07046875 -10.6484375 9.41046875 -10.6484375 8.73046875 C-7.0184375 8.73046875 -3.3884375 8.73046875 0.3515625 8.73046875 C0.0215625 6.42046875 -0.3084375 4.11046875 -0.6484375 1.73046875 C-4.34327669 0.54812021 -7.79197364 0.44999865 -11.6484375 0.73046875 C-13.75086194 1.58266798 -13.75086194 1.58266798 -14.6484375 3.73046875 C-15.22581706 8.20050405 -15.19237002 10.91456997 -12.6484375 14.73046875 C-14.53125 14.07421875 -14.53125 14.07421875 -16.6484375 12.73046875 C-17.703125 10.19921875 -17.703125 10.19921875 -18.5234375 7.23046875 C-19.90008474 2.6077181 -19.90008474 2.6077181 -23.8984375 0.04296875 C-24.8059375 -0.06015625 -25.7134375 -0.16328125 -26.6484375 -0.26953125 C-26.6484375 -0.59953125 -26.6484375 -0.92953125 -26.6484375 -1.26953125 C-23.3359375 -1.51953125 -23.3359375 -1.51953125 -19.6484375 -1.26953125 C-17.7109375 0.73046875 -17.7109375 0.73046875 -16.6484375 2.73046875 C-16.2565625 2.09109375 -15.8646875 1.45171875 -15.4609375 0.79296875 C-11.7564947 -3.42243168 -4.41919836 -3.40341106 0 0 Z " fill="#F5EAF0" transform="translate(198.6484375,16.26953125)"/>
<path d="M0 0 C1.32 0 2.64 0 4 0 C4 1.32 4 2.64 4 4 C4.99 4.33 5.98 4.66 7 5 C7 5.99 7 6.98 7 8 C6.01 8 5.02 8 4 8 C4 10.64 4 13.28 4 16 C4.99 16 5.98 16 7 16 C7 16.99 7 17.98 7 19 C4.66705225 19.04241723 2.33297433 19.04092937 0 19 C-1 18 -1 18 -1.09765625 15.71484375 C-1.08025391 14.34005859 -1.08025391 14.34005859 -1.0625 12.9375 C-1.05347656 12.01839844 -1.04445312 11.09929688 -1.03515625 10.15234375 C-1.02355469 9.44207031 -1.01195312 8.73179688 -1 8 C-1.66 8 -2.32 8 -3 8 C-2.67 6.68 -2.34 5.36 -2 4 C-1.34 4 -0.68 4 0 4 C0 2.68 0 1.36 0 0 Z " fill="#DC76AB" transform="translate(224,12)"/>
<path d="M0 0 C1.65 0 3.3 0 5 0 C4.01 0.33 3.02 0.66 2 1 C2 2.32 2 3.64 2 5 C2.928125 5.103125 3.85625 5.20625 4.8125 5.3125 C8 6 8 6 9.5 7.5625 C11.0128635 9.29764612 11.0128635 9.29764612 13.9375 9.375 C17.28918806 8.96458922 18.48951108 8.15184765 21 6 C21.66 6 22.32 6 23 6 C22.67 6.99 22.34 7.98 22 9 C27.445 9.495 27.445 9.495 33 10 C33 10.66 33 11.32 33 12 C21.45 12 9.9 12 -2 12 C-2 11.34 -2 10.68 -2 10 C0.64 9.67 3.28 9.34 6 9 C4.02 8.01 2.04 7.02 0 6 C0 4.02 0 2.04 0 0 Z " fill="#3B4143" transform="translate(6,19)"/>
<path d="M0 0 C3.7 1.4 3.7 1.4 5 4 C5.1875 7.5 5.1875 7.5 5 11 C4.34 11.66 3.68 12.32 3 13 C1.5 11.875 1.5 11.875 0 10 C-0.1875 6.8125 -0.1875 6.8125 0 4 C-1.65 4.33 -3.3 4.66 -5 5 C-5.33 7.64 -5.66 10.28 -6 13 C-6.99 12.67 -7.98 12.34 -9 12 C-9.33 8.7 -9.66 5.4 -10 2 C-5.95732881 -0.02133559 -4.36628017 -0.36385668 0 0 Z " fill="#DA74AB" transform="translate(137,16)"/>
<path d="M0 0 C3.39488422 2.05107588 4.80323081 3.70484621 7 7 C7.66 6.34 8.32 5.68 9 5 C14.01023306 3.84379237 17.25502375 4.03257082 22 6 C18.37349763 7.00782071 14.86522634 7.28350995 11.12109375 7.5234375 C8.90531912 7.8214244 8.90531912 7.8214244 7.484375 9.52734375 C6 11 6 11 3.95703125 11.29296875 C1.97135417 11.1953125 -0.01432292 11.09765625 -2 11 C-2 10.67 -2 10.34 -2 10 C-0.02 10 1.96 10 4 10 C3.67 8.02 3.34 6.04 3 4 C-1.61836307 2.46054564 -6.1828765 2.33896407 -11 3 C-13.36529725 4.44237743 -14.34495004 5.71717247 -16 8 C-16.33 6.68 -16.66 5.36 -17 4 C-19.31 4.33 -21.62 4.66 -24 5 C-23.34 4.01 -22.68 3.02 -22 2 C-19.0625 1.8125 -19.0625 1.8125 -16 2 C-10.34208678 2 -6.34339457 -0.84105711 0 0 Z " fill="#F6EEF3" transform="translate(119,10)"/>
<path d="M0 0 C3.40312738 1.05875074 6.01353231 2.00902154 9 4 C9.6875 6.625 9.6875 6.625 10 9 C3.375 10.125 3.375 10.125 0 9 C0 9.66 0 10.32 0 11 C-0.99 11 -1.98 11 -3 11 C-3 10.01 -3 9.02 -3 8 C-2.34 8 -1.68 8 -1 8 C-1 7.01 -1 6.02 -1 5 C-1.99 5.33 -2.98 5.66 -4 6 C-5.5 4.625 -5.5 4.625 -7 3 C-7 2.34 -7 1.68 -7 1 C-4.525 1.495 -4.525 1.495 -2 2 C-2 2.66 -2 3.32 -2 4 C-1.34 4 -0.68 4 0 4 C0 2.68 0 1.36 0 0 Z " fill="#8E8F91" transform="translate(20,9)"/>
<path d="M0 0 C-2.9826906 1.52448631 -5.818202 2.93940067 -9 4 C-11.17671203 7.32908899 -11.97506953 11.19311539 -13 15 C-12.34 15 -11.68 15 -11 15 C-10.938125 15.94875 -10.87625 16.8975 -10.8125 17.875 C-10.544375 18.90625 -10.27625 19.9375 -10 21 C-7.55711372 22.31068333 -7.55711372 22.31068333 -5 23 C-4.67 23.66 -4.34 24.32 -4 25 C-6.97 25 -9.94 25 -13 25 C-13.33 25.66 -13.66 26.32 -14 27 C-15.87141212 21.38576363 -16.07766851 14.40285547 -14.28125 8.73046875 C-11.24082742 3.10323503 -6.50893895 -1.95268168 0 0 Z " fill="#BD7D87" transform="translate(17,4)"/>
<path d="M0 0 C2.6875 1.75 2.6875 1.75 4 4 C4 5.32 4 6.64 4 8 C2.02 8 0.04 8 -2 8 C-2.33 7.01 -2.66 6.02 -3 5 C-4.65 5 -6.3 5 -8 5 C-8 4.34 -8 3.68 -8 3 C-6.68 2.67 -5.36 2.34 -4 2 C-6.91634129 1.7497843 -6.91634129 1.7497843 -10 2 C-11.93395001 4.90092502 -12.30131941 5.89674737 -12.625 9.1875 C-12.74875 10.445625 -12.8725 11.70375 -13 13 C-12.34 13 -11.68 13 -11 13 C-11.33 14.32 -11.66 15.64 -12 17 C-14 16 -14 16 -14.80859375 13.92578125 C-15.93875382 9.22965026 -16.4032491 6.8662388 -14.3125 2.375 C-10.40479058 -1.42476164 -5.04023668 -0.91499681 0 0 Z " fill="#D878AA" transform="translate(119,12)"/>
<path d="M0 0 C2.625 0.375 2.625 0.375 5 1 C4.67 1.99 4.34 2.98 4 4 C3.67 3.34 3.34 2.68 3 2 C2.34 2 1.68 2 1 2 C1 3.98 1 5.96 1 8 C1.99 8.33 2.98 8.66 4 9 C4.33 8.01 4.66 7.02 5 6 C7.31 6 9.62 6 12 6 C12.33 7.32 12.66 8.64 13 10 C13.66 10 14.32 10 15 10 C15.66 11.65 16.32 13.3 17 15 C16.2575 14.608125 15.515 14.21625 14.75 13.8125 C13.8425 13.544375 12.935 13.27625 12 13 C11.4121875 13.474375 10.824375 13.94875 10.21875 14.4375 C7.26602249 16.51688557 5.31938039 16.30389284 1.75 16.1875 C0.13351563 16.14689453 0.13351563 16.14689453 -1.515625 16.10546875 C-2.74539062 16.05326172 -2.74539062 16.05326172 -4 16 C-4 15.67 -4 15.34 -4 15 C-3.24074219 14.93941406 -2.48148437 14.87882812 -1.69921875 14.81640625 C-0.20841797 14.69072266 -0.20841797 14.69072266 1.3125 14.5625 C2.29863281 14.48128906 3.28476563 14.40007813 4.30078125 14.31640625 C7.09375599 14.08187441 7.09375599 14.08187441 10 13 C10.33 11.35 10.66 9.7 11 8 C9.02 8 7.04 8 5 8 C4.67 8.99 4.34 9.98 4 11 C-0.875 10.125 -0.875 10.125 -2 9 C-2.1875 5.5625 -2.1875 5.5625 -2 2 C-1.34 1.34 -0.68 0.68 0 0 Z " fill="#F3E6ED" transform="translate(112,16)"/>
<path d="M0 0 C8.375 -0.32211538 8.375 -0.32211538 11 2 C11.75 5.625 11.75 5.625 12 9 C10.18757948 9.02687279 8.37504767 9.04633715 6.5625 9.0625 C5.55316406 9.07410156 4.54382813 9.08570313 3.50390625 9.09765625 C1 9 1 9 0 8 C-0.04063832 6.33382885 -0.042721 4.66611905 0 3 C0.66 2.67 1.32 2.34 2 2 C1.34 1.34 0.68 0.68 0 0 Z " fill="#DB7CAD" transform="translate(187,16)"/>
<path d="M0 0 C1.11375 1.0209375 1.11375 1.0209375 2.25 2.0625 C3.24 2.7225 4.23 3.3825 5.25 4.0625 C3.27 5.0525 3.27 5.0525 1.25 6.0625 C1.25 5.0725 1.25 4.0825 1.25 3.0625 C0.5075 2.77375 -0.235 2.485 -1 2.1875 C-3.31739797 1.23947356 -5.52917115 0.21404089 -7.75 -0.9375 C-7.75 0.3825 -7.75 1.7025 -7.75 3.0625 C-8.41 3.0625 -9.07 3.0625 -9.75 3.0625 C-10.08 2.4025 -10.41 1.7425 -10.75 1.0625 C-12.77463255 0.41036708 -12.77463255 0.41036708 -14.75 0.0625 C-14.42 1.3825 -14.09 2.7025 -13.75 4.0625 C-13.09 4.0625 -12.43 4.0625 -11.75 4.0625 C-11.75 5.0525 -11.75 6.0425 -11.75 7.0625 C-14 8.875 -14 8.875 -16.75 10.0625 C-19.0625 9.25 -19.0625 9.25 -20.75 8.0625 C-18.77 7.4025 -16.79 6.7425 -14.75 6.0625 C-15.5234375 4.9178125 -15.5234375 4.9178125 -16.3125 3.75 C-16.786875 2.863125 -17.26125 1.97625 -17.75 1.0625 C-17.42 0.0725 -17.09 -0.9175 -16.75 -1.9375 C-10.59488883 -3.06803062 -5.31205134 -3.74258162 0 0 Z " fill="#705E60" transform="translate(27.75,9.9375)"/>
<path d="M0 0 C1.58889511 0.39492769 3.17439993 0.80498319 4.75 1.25 C4.75 2.24 4.75 3.23 4.75 4.25 C5.41 4.25 6.07 4.25 6.75 4.25 C6.42 5.57 6.09 6.89 5.75 8.25 C2.12 8.25 -1.51 8.25 -5.25 8.25 C-5.25 7.92 -5.25 7.59 -5.25 7.25 C-3.27 6.92 -1.29 6.59 0.75 6.25 C1.08 5.26 1.41 4.27 1.75 3.25 C-0.89 3.25 -3.53 3.25 -6.25 3.25 C-6.25 4.57 -6.25 5.89 -6.25 7.25 C-7.57 7.25 -8.89 7.25 -10.25 7.25 C-9.88799859 4.71599016 -9.14522818 3.07689873 -7.8125 0.875 C-4.62050295 -1.14919325 -3.61969655 -0.72701119 0 0 Z " fill="#D971A8" transform="translate(94.25,27.75)"/>
<path d="M0 0 C5.94 0 11.88 0 18 0 C18 0.66 18 1.32 18 2 C15.03 2.66 12.06 3.32 9 4 C15.06264222 3.33735914 15.06264222 3.33735914 21 2 C18.23042864 5.18500706 15.9674201 5.84865999 11.81640625 6.16796875 C7.41742535 6.20608817 4.00476053 6.06697318 0 4 C2 3 2 3 5 3 C2.525 2.01 2.525 2.01 0 1 C0 0.67 0 0.34 0 0 Z " fill="#B1B6B9" transform="translate(12,37)"/>
<path d="M0 0 C0.79921875 0.11085938 1.5984375 0.22171875 2.421875 0.3359375 C3.32679688 0.47902344 3.32679688 0.47902344 4.25 0.625 C4.58 2.275 4.91 3.925 5.25 5.625 C1.62 5.295 -2.01 4.965 -5.75 4.625 C-6.08 6.275 -6.41 7.925 -6.75 9.625 C-7.41 9.625 -8.07 9.625 -8.75 9.625 C-8.75 6.985 -8.75 4.345 -8.75 1.625 C-5.5750906 -0.2828584 -3.64414789 -0.5359041 0 0 Z " fill="#D874A4" transform="translate(211.75,16.375)"/>
<path d="M0 0 C2.97 0 5.94 0 9 0 C9 0.66 9 1.32 9 2 C7.35 2 5.7 2 4 2 C4.185625 3.216875 4.37125 4.43375 4.5625 5.6875 C4.98993182 9.02977939 4.92258883 11.71968417 4 15 C2.68 15 1.36 15 0 15 C0 10.05 0 5.1 0 0 Z " fill="#DC69A7" transform="translate(57,13)"/>
<path d="M0 0 C3.87729472 0.57441403 6.21519058 2.29254639 9 5 C9 6.32 9 7.64 9 9 C4.66726186 9.92844389 1.33273814 9.92844389 -3 9 C-1.35 7.02 0.3 5.04 2 3 C1.34 3 0.68 3 0 3 C0 2.01 0 1.02 0 0 Z " fill="#E1E1E0" transform="translate(30,15)"/>
<path d="M0 0 C3 1 3 1 4.1875 3.375 C5 6 5 6 5 9 C-0.625 11 -0.625 11 -4 11 C-3.56179109 6.44262737 -3.14958831 3.42346555 0 0 Z " fill="#F59DA8" transform="translate(8,8)"/>
<path d="M0 0 C1.98 0 3.96 0 6 0 C5.6875 2.375 5.6875 2.375 5 5 C1.57905758 7.28062828 0.31812778 7.21925007 -3.6875 7.125 C-5.17830078 7.09792969 -5.17830078 7.09792969 -6.69921875 7.0703125 C-7.45847656 7.04710937 -8.21773438 7.02390625 -9 7 C-9.33 6.34 -9.66 5.68 -10 5 C-8.68 5.33 -7.36 5.66 -6 6 C-5.67 4.68 -5.34 3.36 -5 2 C-3.68 2 -2.36 2 -1 2 C-0.67 1.34 -0.34 0.68 0 0 Z " fill="#D877AA" transform="translate(117,24)"/>
<path d="M0 0 C0.99 0 1.98 0 3 0 C3 0.66 3 1.32 3 2 C3.66 2 4.32 2 5 2 C5.12117188 2.61488281 5.24234375 3.22976562 5.3671875 3.86328125 C5.53476563 4.67152344 5.70234375 5.47976562 5.875 6.3125 C6.11863281 7.51326172 6.11863281 7.51326172 6.3671875 8.73828125 C6.94478999 11.25301118 6.94478999 11.25301118 9 14 C5.17053157 12.54744301 3.87949705 10.57104439 2 7 C1.8509288 9.0745356 1.8509288 9.0745356 3 11 C-0.96 10.67 -4.92 10.34 -9 10 C-8.67 9.34 -8.34 8.68 -8 8 C-5.67843403 7.59270772 -3.3431213 7.25561323 -1 7 C-0.25042843 3.52852158 -0.25042843 3.52852158 0 0 Z " fill="#F3E0EB" transform="translate(99,17)"/>
<path d="M0 0 C0.66 0 1.32 0 2 0 C2 0.99 2 1.98 2 3 C1.34 3 0.68 3 0 3 C0 3.99 0 4.98 0 6 C0.763125 5.79375 1.52625 5.5875 2.3125 5.375 C5 5 5 5 8 7 C3.07495384 8.99664033 -0.64368717 10.11902917 -6 10 C-5.75 7.625 -5.75 7.625 -5 5 C-3 3.875 -3 3.875 -1 3 C-0.67 2.01 -0.34 1.02 0 0 Z " fill="#E5E7E9" transform="translate(17,14)"/>
<path d="M0 0 C0.33 0 0.66 0 1 0 C1.125 6.75 1.125 6.75 0 9 C-3.96 9 -7.92 9 -12 9 C-11.34 7.68 -10.68 6.36 -10 5 C-10.66 4.67 -11.32 4.34 -12 4 C-8.04 4 -4.08 4 0 4 C0 2.68 0 1.36 0 0 Z " fill="#D2D3D1" transform="translate(39,20)"/>
<path d="M0 0 C1.32 0 2.64 0 4 0 C4 4.95 4 9.9 4 15 C2.68 15 1.36 15 0 15 C0 10.05 0 5.1 0 0 Z " fill="#DA71A7" transform="translate(77,16)"/>
<path d="M0 0 C-0.99 0.66 -1.98 1.32 -3 2 C-2.01 2.66 -1.02 3.32 0 4 C-0.33 5.32 -0.66 6.64 -1 8 C-3.475 7.01 -3.475 7.01 -6 6 C-6 5.01 -6 4.02 -6 3 C-6.66 3 -7.32 3 -8 3 C-8.82638376 5.89234315 -9 7.88742431 -9 11 C-9.66 11 -10.32 11 -11 11 C-11.05399736 9.54207116 -11.09279177 8.08357288 -11.125 6.625 C-11.15980469 5.40683594 -11.15980469 5.40683594 -11.1953125 4.1640625 C-11 2 -11 2 -9 0 C-5.42460821 -0.83679382 -3.52044638 -1.17348213 0 0 Z " fill="#F5EAEF" transform="translate(95,15)"/>
<path d="M0 0 C9.57 0 19.14 0 29 0 C28.67 0.66 28.34 1.32 28 2 C23.70942047 2.25398309 19.41776866 2.47398533 15.125 2.6875 C13.29001953 2.79674805 13.29001953 2.79674805 11.41796875 2.90820312 C10.25136719 2.96298828 9.08476562 3.01777344 7.8828125 3.07421875 C6.80402832 3.13182373 5.72524414 3.18942871 4.61376953 3.2487793 C3.31995361 3.12563354 3.31995361 3.12563354 2 3 C1.34 2.01 0.68 1.02 0 0 Z " fill="#91969B" transform="translate(6,34)"/>
<path d="M0 0 C1.65 0 3.3 0 5 0 C4.01 0.33 3.02 0.66 2 1 C2 2.32 2 3.64 2 5 C2.928125 5.0825 3.85625 5.165 4.8125 5.25 C8 6 8 6 9.875 8.0625 C10.24625 8.701875 10.6175 9.34125 11 10 C6.50343896 12.24828052 2.92127034 12.16682272 -2 12 C-2 11.34 -2 10.68 -2 10 C0.64 9.67 3.28 9.34 6 9 C4.02 8.01 2.04 7.02 0 6 C0 4.02 0 2.04 0 0 Z " fill="#523E41" transform="translate(6,19)"/>
<path d="M0 0 C0.99 0 1.98 0 3 0 C3 1.32 3 2.64 3 4 C4.65 4 6.3 4 8 4 C8 4.99 8 5.98 8 7 C9.0725 6.46375 10.145 5.9275 11.25 5.375 C15 4 15 4 17.4375 4.8125 C17.953125 5.204375 18.46875 5.59625 19 6 C16.56780169 8.24510613 15.28218472 8.97120564 11.9375 9.3125 C9 9 9 9 6 7 C6 6.34 6 5.68 6 5 C3.03 4.505 3.03 4.505 0 4 C0 2.68 0 1.36 0 0 Z " fill="#C6CBCD" transform="translate(8,20)"/>
<path d="M0 0 C0.33 1.32 0.66 2.64 1 4 C-2.14930893 5.04976964 -4.38814456 5.10131595 -7.6875 5.0625 C-8.68136719 5.05347656 -9.67523438 5.04445313 -10.69921875 5.03515625 C-11.83810547 5.01775391 -11.83810547 5.01775391 -13 5 C-8.78969202 0.49932596 -6.1058964 -0.13568659 0 0 Z " fill="#E7ADB7" transform="translate(23,3)"/>
<path d="M0 0 C-2.9826906 1.52448631 -5.818202 2.93940067 -9 4 C-10.12516085 5.83284443 -10.12516085 5.83284443 -11 8 C-11.34546875 8.58910156 -11.6909375 9.17820312 -12.046875 9.78515625 C-13.22837483 12.53069068 -13.23166743 14.64570621 -13.1875 17.625 C-13.18105469 18.58664063 -13.17460937 19.54828125 -13.16796875 20.5390625 C-13.1584765 23.00410451 -13.1584765 23.00410451 -12 25 C-12.66 25.66 -13.32 26.32 -14 27 C-15.87141212 21.38576363 -16.07766851 14.40285547 -14.28125 8.73046875 C-11.24082742 3.10323503 -6.50893895 -1.95268168 0 0 Z " fill="#80686B" transform="translate(17,4)"/>
<path d="M0 0 C0.66 0.33 1.32 0.66 2 1 C2 4.96 2 8.92 2 13 C0.68 13 -0.64 13 -2 13 C-2 9.04 -2 5.08 -2 1 C-1.34 0.67 -0.68 0.34 0 0 Z " fill="#DB6BA6" transform="translate(158,18)"/>
<path d="M0 0 C2.64 0 5.28 0 8 0 C7.67 1.32 7.34 2.64 7 4 C8.32 4.66 9.64 5.32 11 6 C6.71 6 2.42 6 -2 6 C-2.33 5.34 -2.66 4.68 -3 4 C-2.01 4 -1.02 4 0 4 C0 2.68 0 1.36 0 0 Z M3 1 C7 2 7 2 7 2 Z " fill="#E2A7C7" transform="translate(88,31)"/>
<path d="M0 0 C8.57142857 -0.14285714 8.57142857 -0.14285714 12 1 C12.33 2.98 12.66 4.96 13 7 C11.02 7.99 11.02 7.99 9 9 C9.33 7.68 9.66 6.36 10 5 C8.68 5.33 7.36 5.66 6 6 C6.33 5.01 6.66 4.02 7 3 C4.69 2.34 2.38 1.68 0 1 C0 0.67 0 0.34 0 0 Z " fill="#E2A8C6" transform="translate(91,27)"/>
<path d="M0 0 C1.65 0 3.3 0 5 0 C3.125 4.875 3.125 4.875 2 6 C-0.67058851 6.14115161 -3.32432238 6.04247107 -6 6 C-6.33 5.01 -6.66 4.02 -7 3 C-5.5459375 2.814375 -5.5459375 2.814375 -4.0625 2.625 C-2.5465625 2.315625 -2.5465625 2.315625 -1 2 C-0.67 1.34 -0.34 0.68 0 0 Z " fill="#D976A7" transform="translate(213,25)"/>
<path d="M0 0 C-0.33 0.66 -0.66 1.32 -1 2 C-1.99 2 -2.98 2 -4 2 C-4 5.96 -4 9.92 -4 14 C-4.33 14 -4.66 14 -5 14 C-5 10.37 -5 6.74 -5 3 C-8.0745356 3.7763932 -8.0745356 3.7763932 -10 6 C-10.33 4.68 -10.66 3.36 -11 2 C-6.97107804 -0.96244261 -4.82799816 -1.2350693 0 0 Z " fill="#DB84B0" transform="translate(160,17)"/>
<path d="M0 0 C0.66 0 1.32 0 2 0 C1.814375 0.969375 1.62875 1.93875 1.4375 2.9375 C1.293125 3.948125 1.14875 4.95875 1 6 C2.18852855 7.41774838 2.18852855 7.41774838 5.59765625 7.09765625 C7.08596867 7.0909822 8.57426432 7.07902183 10.0625 7.0625 C11.20041992 7.05573242 11.20041992 7.05573242 12.36132812 7.04882812 C14.24091871 7.0370068 16.12046899 7.01907078 18 7 C15.52614329 9.47385671 14.02495772 9.28571102 10.63867188 9.32226562 C9.6109668 9.31743164 9.6109668 9.31743164 8.5625 9.3125 C7.88123047 9.32861328 7.19996094 9.34472656 6.49804688 9.36132812 C3.5215656 9.36424339 1.49972531 9.35327116 -0.97265625 7.60546875 C-2 6 -2 6 -2 4 C-4.31 3.67 -6.62 3.34 -9 3 C-9 2.67 -9 2.34 -9 2 C-6.94921875 1.77213542 -4.8984375 1.54427083 -2.84765625 1.31640625 C-0.98859771 1.18113386 -0.98859771 1.18113386 0 0 Z " fill="#F4E6EE" transform="translate(84,29)"/>
<path d="M0 0 C0.99 0.33 1.98 0.66 3 1 C4.66362417 1.34820041 6.32995171 1.68404492 8 2 C7.67 2.66 7.34 3.32 7 4 C4.69 4 2.38 4 0 4 C0 5.98 0 7.96 0 10 C-1.65 10 -3.3 10 -5 10 C-5 9.01 -5 8.02 -5 7 C-3.68 7 -2.36 7 -1 7 C-0.67 4.69 -0.34 2.38 0 0 Z " fill="#D97DAD" transform="translate(62,21)"/>
<path d="M0 0 C7.48052834 -0.44219872 12.96213872 -0.75320994 19 4 C20.9375 6.75 20.9375 6.75 22 9 C19.53905201 7.86417785 17.63339372 6.70671498 15.5 5 C10.98088312 1.86237481 5.32843246 1.65527648 0 1 C0 0.67 0 0.34 0 0 Z " fill="#DEDCDC" transform="translate(18,1)"/>
<path d="M0 0 C2.9719385 1.12451727 5.33440687 2.22293791 8 4 C8.33 3.34 8.66 2.68 9 2 C11.01124138 6.02248275 10.21604913 10.25733112 9 14.4375 C8.67 15.283125 8.34 16.12875 8 17 C6.62567543 13.18243176 7.32024961 9.92744671 8 6 C7.4225 5.7525 6.845 5.505 6.25 5.25 C3.6997003 3.83316683 1.98214299 2.12372463 0 0 Z " fill="#6F6A6C" transform="translate(32,14)"/>
<path d="M0 0 C0.66 0.33 1.32 0.66 2 1 C1.525625 1.495 1.05125 1.99 0.5625 2.5 C-1.62167907 5.99468651 -1.65913911 8.90966936 -2 13 C-1.34 13 -0.68 13 0 13 C-0.33 14.32 -0.66 15.64 -1 17 C-3 16 -3 16 -3.80859375 13.92578125 C-5.48180322 6.97312824 -5.48180322 6.97312824 -4.01171875 4.00390625 C-2.625 2.375 -2.625 2.375 0 0 Z " fill="#DA83B2" transform="translate(108,12)"/>
<path d="M0 0 C2.97 0 5.94 0 9 0 C9 0.33 9 0.66 9 1 C7.02 1 5.04 1 3 1 C3.33 2.32 3.66 3.64 4 5 C4.66 5 5.32 5 6 5 C6 5.99 6 6.98 6 8 C3.75 9.8125 3.75 9.8125 1 11 C-1.3125 10.1875 -1.3125 10.1875 -3 9 C-1.02 8.34 0.96 7.68 3 7 C2.505 6.21625 2.01 5.4325 1.5 4.625 C0 2 0 2 0 0 Z " fill="#634E4F" transform="translate(10,9)"/>
<path d="M0 0 C0.94875 0.04125 1.8975 0.0825 2.875 0.125 C-0.125 2.125 -0.125 2.125 -2.125 2.125 C-1.795 4.435 -1.465 6.745 -1.125 9.125 C-2.445 9.125 -3.765 9.125 -5.125 9.125 C-5.25 5.75 -5.25 5.75 -5.125 2.125 C-3.125 0.125 -3.125 0.125 0 0 Z " fill="#DC6CA4" transform="translate(189.125,16.875)"/>
<path d="M0 0 C4.75 0.75 4.75 0.75 7 3 C7 3.99 7 4.98 7 6 C4.625 6.125 4.625 6.125 2 6 C1.34 5.34 0.68 4.68 0 4 C0 2.68 0 1.36 0 0 Z " fill="#E3E2E5" transform="translate(21,10)"/>
<path d="M0 0 C1.06992188 -0.03738281 2.13984375 -0.07476562 3.2421875 -0.11328125 C6.125 0.3125 6.125 0.3125 8.0078125 2.33203125 C8.37648437 2.98558594 8.74515625 3.63914062 9.125 4.3125 C8.25875 3.9825 7.3925 3.6525 6.5 3.3125 C1.81155296 1.92333051 -2.19919329 1.87379024 -6.875 3.3125 C-6.875 3.9725 -6.875 4.6325 -6.875 5.3125 C-7.535 5.3125 -8.195 5.3125 -8.875 5.3125 C-6.44512378 0.2907558 -5.69122451 0.12965619 0 0 Z " fill="#F8EFF4" transform="translate(209.875,14.6875)"/>
<path d="M0 0 C3.2542015 2.83430453 4.5206753 4.68607774 5 9 C1.40608886 7.66511872 -1.75490696 6.03977277 -5 4 C-2 3 -2 3 1 4 C0.67 2.68 0.34 1.36 0 0 Z " fill="#D799A0" transform="translate(34,8)"/>
<path d="M0 0 C0.66 0 1.32 0 2 0 C2 0.66 2 1.32 2 2 C2.66 2 3.32 2 4 2 C4.12117188 2.61488281 4.24234375 3.22976562 4.3671875 3.86328125 C4.53476563 4.67152344 4.70234375 5.47976562 4.875 6.3125 C5.03742188 7.11300781 5.19984375 7.91351563 5.3671875 8.73828125 C5.94478999 11.25301118 5.94478999 11.25301118 8 14 C4.94162714 12.94538867 4.03641898 12.05934946 2.3125 9.25 C1.04634507 6.11475921 0.39842005 3.34672841 0 0 Z " fill="#F8F0F4" transform="translate(100,17)"/>
<path d="M0 0 C1.2065625 0.0309375 1.2065625 0.0309375 2.4375 0.0625 C2.4375 2.3725 2.4375 4.6825 2.4375 7.0625 C0.78135343 7.44468767 -0.88707024 7.77645102 -2.5625 8.0625 C-3.5625 7.0625 -3.5625 7.0625 -3.6875 4.0625 C-3.52180824 0.08589776 -3.52180824 0.08589776 0 0 Z M-1.5625 1.0625 C-1.8925 2.3825 -2.2225 3.7025 -2.5625 5.0625 C-1.2425 5.0625 0.0775 5.0625 1.4375 5.0625 C1.1075 3.7425 0.7775 2.4225 0.4375 1.0625 C-0.2225 1.0625 -0.8825 1.0625 -1.5625 1.0625 Z " fill="#ECD8E3" transform="translate(134.5625,19.9375)"/>
<path d="M0 0 C0.33 0 0.66 0 1 0 C1.125 6.75 1.125 6.75 0 9 C-3.96 9 -7.92 9 -12 9 C-10 7 -10 7 -7.0625 6.9375 C-5.5465625 6.9684375 -5.5465625 6.9684375 -4 7 C-3.01 6.67 -2.02 6.34 -1 6 C-0.67 4.02 -0.34 2.04 0 0 Z " fill="#B7BBBB" transform="translate(39,20)"/>
<path d="M0 0 C0 1.32 0 2.64 0 4 C-3.3 3.67 -6.6 3.34 -10 3 C-10 2.34 -10 1.68 -10 1 C-3.71428571 -1.42857143 -3.71428571 -1.42857143 0 0 Z " fill="#D87BAA" transform="translate(217,18)"/>
<path d="M0 0 C2.4375 0.75 2.4375 0.75 5 2 C5.8125 4.125 5.8125 4.125 6 6 C5.01 6.33 4.02 6.66 3 7 C2.01 6.34 1.02 5.68 0 5 C-0.1875 2.375 -0.1875 2.375 0 0 Z " fill="#E9B0CD" transform="translate(89,16)"/>
<path d="M0 0 C1.32 0 2.64 0 4 0 C4.33 1.65 4.66 3.3 5 5 C0.545 4.01 0.545 4.01 -4 3 C-2.68 2.67 -1.36 2.34 0 2 C0 1.34 0 0.68 0 0 Z " fill="#EEA5AC" transform="translate(30,7)"/>
<path d="M0 0 C1.32 1.32 2.64 2.64 4 4 C2 7 2 7 -1.125 7.6875 C-2.07375 7.790625 -3.0225 7.89375 -4 8 C-4.33 7.34 -4.66 6.68 -5 6 C-3.35 5.34 -1.7 4.68 0 4 C0 2.68 0 1.36 0 0 Z " fill="#D9939C" transform="translate(10,11)"/>
<path d="M0 0 C0.99 0 1.98 0 3 0 C3 1.32 3 2.64 3 4 C4.65 4 6.3 4 8 4 C8.33 5.32 8.66 6.64 9 8 C8.01 7.67 7.02 7.34 6 7 C6 6.34 6 5.68 6 5 C3.03 4.505 3.03 4.505 0 4 C0 2.68 0 1.36 0 0 Z " fill="#959998" transform="translate(8,20)"/>
<path d="M0 0 C2.56864728 1.28432364 2.946539 2.36634751 4 5 C4 6.32 4 7.64 4 9 C3.01 8.67 2.02 8.34 1 8 C0.67 5.36 0.34 2.72 0 0 Z " fill="#DD6AA4" transform="translate(127,20)"/>
<path d="M0 0 C0.33 1.32 0.66 2.64 1 4 C0.01 4.495 0.01 4.495 -1 5 C-1.33 5.99 -1.66 6.98 -2 8 C-3.32 7.67 -4.64 7.34 -6 7 C-5.34 7 -4.68 7 -4 7 C-4 5.68 -4 4.36 -4 3 C-3.01 2.67 -2.02 2.34 -1 2 C-0.67 1.34 -0.34 0.68 0 0 Z " fill="#E7CCDA" transform="translate(223,12)"/>
<path d="M0 0 C0.66 0 1.32 0 2 0 C2 1.98 2 3.96 2 6 C1.01 6.33 0.02 6.66 -1 7 C-1.04254356 5.00045254 -1.04080783 2.99958364 -1 1 C-0.67 0.67 -0.34 0.34 0 0 Z " fill="#DE69A2" transform="translate(204,19)"/>
<path d="M0 0 C-0.350625 0.61875 -0.70125 1.2375 -1.0625 1.875 C-1.5265625 2.926875 -1.5265625 2.926875 -2 4 C-1.67 4.66 -1.34 5.32 -1 6 C-2.65 6 -4.3 6 -6 6 C-6 5.01 -6 4.02 -6 3 C-2.66666667 0 -2.66666667 0 0 0 Z " fill="#62676A" transform="translate(29,25)"/>
<path d="M0 0 C1.98 0 3.96 0 6 0 C6 0.99 6 1.98 6 3 C4.02 3 2.04 3 0 3 C0 2.01 0 1.02 0 0 Z " fill="#ECB5D3" transform="translate(187,19)"/>
<path d="M0 0 C0 0.99 0 1.98 0 3 C-1.8125 3.6875 -1.8125 3.6875 -4 4 C-5.75 2.5625 -5.75 2.5625 -7 1 C-4 0 -4 0 0 0 Z " fill="#D987B0" transform="translate(102,14)"/>
<path d="M0 0 C0.99 0.33 1.98 0.66 3 1 C2.360625 1.78375 1.72125 2.5675 1.0625 3.375 C-0.98142313 5.79539281 -0.98142313 5.79539281 -2 8 C-2.66 8 -3.32 8 -4 8 C-2.87548273 5.0280615 -1.77706209 2.66559313 0 0 Z " fill="#DC9FA6" transform="translate(8,8)"/>
</svg>
